<?xml version="1.0" encoding="UTF-8" standalone="no"?>
<svg xmlns="http://www.w3.org/2000/svg" width="1180" height="640" viewBox="0 0 1180 640">
  <defs>
    <style>
      .title{font:700 22px system-ui,Segoe UI,Roboto,Arial; fill:#111827}
      .sub{font:500 13px system-ui,Segoe UI,Roboto,Arial; fill:#4b5563}
      .lane{fill:#f8fafc; stroke:#e5e7eb; stroke-width:1.5}
      .laneTitle{font:700 14px system-ui,Segoe UI,Roboto,Arial; fill:#111827}
      .box{fill:#ffffff; stroke:#cbd5e1; stroke-width:1.5; rx:12; ry:12}
      .boxT{font:600 13px system-ui,Segoe UI,Roboto,Arial; fill:#111827}
      .boxD{font:500 12px system-ui,Segoe UI,Roboto,Arial; fill:#4b5563}
      .arrow{stroke:#2563eb; stroke-width:2.2; fill:none; marker-end:url(#mEnd)}
      .arrow2{stroke:#0ea5e9; stroke-width:2.2; fill:none; marker-end:url(#mEnd2)}
      .note{fill:#eff6ff; stroke:#93c5fd; stroke-width:1.2; rx:10; ry:10}
      .noteT{font:600 12px system-ui,Segoe UI,Roboto,Arial; fill:#1e3a8a}
      .noteD{font:500 12px system-ui,Segoe UI,Roboto,Arial; fill:#1e40af}
    </style>
    <marker id="mEnd" viewBox="0 0 10 10" refX="10" refY="5" markerWidth="7" markerHeight="7" orient="auto-start-reverse">
      <path d="M 0 0 L 10 5 L 0 10 z" fill="#2563eb"/>
    </marker>
    <marker id="mEnd2" viewBox="0 0 10 10" refX="10" refY="5" markerWidth="7" markerHeight="7" orient="auto-start-reverse">
      <path d="M 0 0 L 10 5 L 0 10 z" fill="#0ea5e9"/>
    </marker>
  </defs>

  <rect x="0" y="0" width="1180" height="640" fill="#ffffff"/>
  <text x="32" y="44" class="title">Web - Sequence: Heatmap</text>
  <text x="32" y="70" class="sub">Pham vi: trang Heatmap (Admin) hien thi diem nong theo luot phat/tham quan trong khoang thoi gian.</text>

  <!-- lanes -->
  <rect x="32" y="96" width="352" height="500" class="lane"/>
  <rect x="414" y="96" width="352" height="500" class="lane"/>
  <rect x="796" y="96" width="352" height="500" class="lane"/>
  <text x="48" y="126" class="laneTitle">Admin — Heatmap</text>
  <text x="430" y="126" class="laneTitle">WebThaoCamVien (MVC)</text>
  <text x="812" y="126" class="laneTitle">DB / Analytics Store</text>

  <!-- steps -->
  <rect x="62" y="160" width="292" height="70" class="box"/>
  <text x="82" y="188" class="boxT">1) Mo trang Heatmap</text>
  <text x="82" y="210" class="boxD">Chon time range, filter POI (tuy chon)</text>

  <rect x="444" y="160" width="292" height="92" class="box"/>
  <text x="464" y="188" class="boxT">2) GET /admin/heatmap</text>
  <text x="464" y="210" class="boxD">AuthN/AuthZ; bind query: from/to, days, poiId</text>
  <text x="464" y="232" class="boxD">Chuan hoa timezone va validate range</text>

  <rect x="826" y="172" width="292" height="110" class="box"/>
  <text x="846" y="200" class="boxT">3) Query aggregation</text>
  <text x="846" y="222" class="boxD">Group theo POI / cell / time bucket</text>
  <text x="846" y="244" class="boxD">Tinh intensity: count, avg duration, weight</text>
  <text x="846" y="266" class="boxD">Tra ve list point: lat,lng,intensity</text>

  <rect x="444" y="292" width="292" height="92" class="box"/>
  <text x="464" y="320" class="boxT">4) Map sang view model</text>
  <text x="464" y="342" class="boxD">Payload: bounds, legend, max intensity</text>
  <text x="464" y="364" class="boxD">200 Heatmap; 200 HeatmapDataJson</text>

  <rect x="62" y="422" width="292" height="92" class="box"/>
  <text x="82" y="450" class="boxT">5) Render heatmap layer</text>
  <text x="82" y="472" class="boxD">Map layer nhan points + gradient</text>
  <text x="82" y="494" class="boxD">Update khi doi filter (AJAX/refresh)</text>

  <rect x="444" y="432" width="292" height="82" class="box"/>
  <text x="464" y="460" class="boxT">6) HeatmapDataJson</text>
  <text x="464" y="482" class="boxD">GET HeatmapDataJson — tra ve points</text>

  <!-- arrows -->
  <path d="M354 195 L444 206" class="arrow"/>
  <path d="M736 206 L826 222" class="arrow"/>
  <path d="M826 262 L736 326" class="arrow2"/>
  <path d="M444 338 L354 468" class="arrow2"/>
  <path d="M354 468 L444 468" class="arrow"/>

  <!-- notes -->
  <rect x="826" y="320" width="292" height="70" class="note"/>
  <text x="846" y="348" class="noteT">AC goi y</text>
  <text x="846" y="370" class="noteD">Range > 0; gioi han toi da ngay; payload khong gom PII</text>
</svg>
